<svg width="23" height="18" viewBox="0 0 23 18" fill="none" xmlns="http://www.w3.org/2000/svg">
<path d="M14.7645 0.782735C14.5943 0.62297 14.3914 0.506095 14.1712 0.441109C13.951 0.376123 13.7195 0.36476 13.4945 0.407894L5.19856 2.02545V1.42435C5.19985 1.28798 5.17508 1.15271 5.1257 1.02645C5.07631 0.900197 5.0033 0.785495 4.91094 0.68906C4.81858 0.592625 4.70873 0.516394 4.5878 0.46483C4.46688 0.413266 4.33732 0.387404 4.20671 0.388758C4.07601 0.387253 3.94634 0.413004 3.82529 0.4645C3.70424 0.515997 3.59426 0.592204 3.50178 0.688654C3.40931 0.785104 3.3362 0.899858 3.28675 1.02619C3.23729 1.15252 3.21249 1.28789 3.21379 1.42435V2.39804L1.50717 2.73011C0.616668 2.91696 0 3.82874 0 4.98816V7.76513C0 8.86264 0.556295 9.75416 1.34977 9.98266L3.21487 10.541V16.8818C3.21487 17.4615 3.6515 17.9174 4.20671 17.9174C4.33736 17.9189 4.46699 17.8931 4.58798 17.8416C4.70896 17.7901 4.81888 17.7139 4.91127 17.6174C5.00366 17.5209 5.07666 17.4062 5.126 17.2798C5.17533 17.1535 5.2 17.0182 5.19856 16.8818V11.1421L13.3554 13.587C13.4907 13.6278 13.6307 13.6486 13.7715 13.6489C14.109 13.6489 14.427 13.5453 14.7041 13.318C15.2216 12.9037 15.5385 12.1777 15.5385 11.3908V2.66707C15.5385 1.90163 15.2604 1.19697 14.7645 0.782735ZM2.06455 8.09607C2.06455 8.09607 1.98477 7.95087 1.98477 7.76513V4.98816C1.98477 4.8846 2.00417 4.80243 2.02466 4.74052L3.21487 4.51201V8.42814L2.06347 8.09607H2.06455ZM13.5538 11.4955L5.19856 9.03036V4.11803L13.5333 2.52299C13.5333 2.52299 13.5538 2.60629 13.5538 2.6682V11.4944V11.4955ZM18.3761 1.42435V12.6133C18.3761 12.8223 18.2966 13.0227 18.155 13.1705C18.0135 13.3182 17.8216 13.4013 17.6214 13.4013C17.5235 13.4007 17.4266 13.3798 17.3365 13.3397C17.2464 13.2996 17.1648 13.2412 17.0966 13.1678C17.0283 13.0945 16.9748 13.0076 16.939 12.9124C16.9032 12.8172 16.886 12.7155 16.8883 12.6133V1.42435C16.8883 0.989855 17.2247 0.636401 17.6214 0.636401C18.0181 0.636401 18.3761 0.989855 18.3761 1.42435ZM22.5235 11.3908C22.6099 11.4942 22.6576 11.6268 22.6576 11.764C22.6576 11.9012 22.6099 12.0338 22.5235 12.1372C22.4267 12.2321 22.2983 12.2838 22.1656 12.2812C22.0336 12.2831 21.906 12.2314 21.8098 12.1372L20.1614 10.3958C20.1144 10.349 20.077 10.2928 20.0515 10.2305C20.0259 10.1682 20.0128 10.1011 20.0128 10.0333C20.0128 9.96555 20.0259 9.89848 20.0515 9.83618C20.077 9.77388 20.1144 9.71763 20.1614 9.67086C20.2062 9.62164 20.2601 9.58246 20.3199 9.55568C20.3797 9.5289 20.444 9.51509 20.5091 9.51509C20.5741 9.51509 20.6385 9.5289 20.6982 9.55568C20.758 9.58246 20.8119 9.62164 20.8568 9.67086L22.5235 11.3908ZM20.1625 2.62542C20.1155 2.57658 20.0782 2.51852 20.0527 2.45458C20.0273 2.39064 20.0142 2.32207 20.0142 2.25283C20.0142 2.18359 20.0273 2.11503 20.0527 2.05109C20.0782 1.98715 20.1155 1.92909 20.1625 1.88024L21.8076 0.13999C21.9066 0.0497344 22.0336 0 22.165 0C22.2964 0 22.4234 0.0497344 22.5224 0.13999C22.6088 0.243351 22.6565 0.375921 22.6565 0.513142C22.6565 0.650363 22.6088 0.782934 22.5224 0.886295L20.8568 2.62542C20.8099 2.67411 20.754 2.71215 20.6923 2.73714C20.6307 2.76213 20.5649 2.77354 20.4988 2.77063C20.3802 2.77063 20.2412 2.72898 20.1614 2.6243L20.1625 2.62542ZM23 6.1487C23 6.41886 22.7811 6.6665 22.5041 6.6665H20.1614C20.0305 6.66447 19.9055 6.60926 19.8129 6.51259C19.7203 6.41592 19.6674 6.2854 19.6655 6.1487C19.6655 5.85828 19.8843 5.6309 20.1614 5.6309H22.503C22.7811 5.6309 22.9989 5.85828 22.9989 6.1487H23Z" fill="black"/>
</svg>
