<svg width="1546" height="113" viewBox="0 0 1546 113" fill="none" xmlns="http://www.w3.org/2000/svg">
<path d="M1540.85 15.8156C1542.75 17.7179 1543.7 18.669 1544.38 19.7789C1544.98 20.7629 1545.43 21.8356 1545.7 22.9577C1546 24.2233 1546 25.5681 1546 28.2577V84.7214C1546 87.4119 1546 88.7571 1545.7 90.0231C1545.43 91.1455 1544.98 92.2185 1544.38 93.2027C1543.7 94.3128 1542.75 95.264 1540.85 97.1665L1530.2 107.807C1528.3 109.709 1527.35 110.66 1526.24 111.341C1525.26 111.944 1524.18 112.388 1523.06 112.658C1521.8 112.962 1520.45 112.962 1517.76 112.962L28.2301 112.963C25.5397 112.963 24.1944 112.963 22.9285 112.659C21.8061 112.389 20.7331 111.945 19.7489 111.342C18.6388 110.662 17.6875 109.71 15.7851 107.808L5.15493 97.1778C3.25246 95.2753 2.30122 94.3241 1.62096 93.214C1.01784 92.2298 0.573396 91.1568 0.303931 90.0344C0 88.7684 0 87.4232 0 84.7327V28.249C0 25.5594 0 24.2146 0.303747 22.949C0.573049 21.8269 1.01723 20.7542 1.62 19.7702C2.29986 18.6603 3.25056 17.7092 5.15195 15.8069L15.7946 5.15918C17.6972 3.25564 18.6485 2.30387 19.7588 1.62321C20.7432 1.01975 21.8165 0.575036 22.9392 0.305409C24.2055 0.00129419 25.5512 0.00129303 28.2426 0.00129071L1517.75 6.28854e-06C1520.44 3.96772e-06 1521.78 2.80731e-06 1523.05 0.304118C1524.17 0.573745 1525.25 1.01846 1526.23 1.62192C1527.34 2.30258 1528.29 3.25436 1530.2 5.15791L1540.85 15.8156Z" fill="black"/>
<path d="M1540.85 15.8156C1542.75 17.7179 1543.7 18.669 1544.38 19.7789C1544.98 20.7629 1545.43 21.8356 1545.7 22.9577C1546 24.2233 1546 25.5681 1546 28.2577V84.7214C1546 87.4119 1546 88.7571 1545.7 90.0231C1545.43 91.1455 1544.98 92.2185 1544.38 93.2027C1543.7 94.3128 1542.75 95.264 1540.85 97.1665L1530.2 107.807C1528.3 109.709 1527.35 110.66 1526.24 111.341C1525.26 111.944 1524.18 112.388 1523.06 112.658C1521.8 112.962 1520.45 112.962 1517.76 112.962L28.2301 112.963C25.5397 112.963 24.1944 112.963 22.9285 112.659C21.8061 112.389 20.7331 111.945 19.7489 111.342C18.6388 110.662 17.6875 109.71 15.7851 107.808L5.15493 97.1778C3.25246 95.2753 2.30122 94.3241 1.62096 93.214C1.01784 92.2298 0.573396 91.1568 0.303931 90.0344C0 88.7684 0 87.4232 0 84.7327V28.249C0 25.5594 0 24.2146 0.303747 22.949C0.573049 21.8269 1.01723 20.7542 1.62 19.7702C2.29986 18.6603 3.25056 17.7092 5.15195 15.8069L15.7946 5.15918C17.6972 3.25564 18.6485 2.30387 19.7588 1.62321C20.7432 1.01975 21.8165 0.575036 22.9392 0.305409C24.2055 0.00129419 25.5512 0.00129303 28.2426 0.00129071L1517.75 6.28854e-06C1520.44 3.96772e-06 1521.78 2.80731e-06 1523.05 0.304118C1524.17 0.573745 1525.25 1.01846 1526.23 1.62192C1527.34 2.30258 1528.29 3.25436 1530.2 5.15791L1540.85 15.8156Z" fill="#CC4478" style="mix-blend-mode:hue"/>
</svg>
