<svg width="1059" height="202" viewBox="0 0 1059 202" fill="none" xmlns="http://www.w3.org/2000/svg">
<path fill-rule="evenodd" clip-rule="evenodd" d="M1057.39 19.8867C1056.71 18.7793 1055.77 17.829 1053.88 15.9286L1043.2 5.18975C1041.3 3.27465 1040.34 2.3171 1039.23 1.63222C1038.24 1.02502 1037.17 0.577459 1036.04 0.306087C1034.77 0 1033.42 0 1030.72 0H409H28.269H8C3.58172 0 0 3.58172 0 8V28.3288V173.689V194C0 198.418 3.58173 202 8.00001 202H28.2566H409H1030.73C1033.43 202 1034.78 202 1036.05 201.694C1037.18 201.423 1038.26 200.976 1039.24 200.369C1040.35 199.684 1041.31 198.727 1043.21 196.813L1053.88 186.092L1053.88 186.09C1055.77 184.191 1056.71 183.241 1057.39 182.133C1057.99 181.151 1058.43 180.081 1058.7 178.962C1059 177.7 1059 176.36 1059 173.679V28.3388C1059 25.6587 1059 24.3186 1058.7 23.0569C1058.43 21.9383 1057.99 20.8686 1057.39 19.8867Z" fill="#BEC5FF"/>
</svg>
