<svg width="202" height="67" viewBox="0 0 202 67" fill="none" xmlns="http://www.w3.org/2000/svg">
<path d="M201.196 22.4351V29.4151L191.543 29.6793L191.512 29.1663C190.516 29.5705 189.37 29.7726 188.104 29.7726C187.72 29.7726 187.342 29.7571 186.984 29.7208C185.874 29.6068 184.873 29.3218 184.012 28.8554C183.872 28.7829 183.732 28.7051 183.592 28.6171V29.4721H164.846V29.3477C164.343 29.4565 163.84 29.5394 163.347 29.6016C162.486 29.7156 161.558 29.7726 160.588 29.7726C157.974 29.7726 155.992 28.9642 154.711 27.3838C153.845 26.306 153.3 24.8758 153.077 23.0621H153.025L153.7 28.9539L151.708 29.3114C151.407 29.3632 151.117 29.4151 150.831 29.4565C150.116 29.5705 149.41 29.6482 148.746 29.6845C147.89 29.7363 147.118 29.7622 146.448 29.7622C143.362 29.7622 140.852 28.9487 138.979 27.3475C138.85 27.2335 138.736 27.1299 138.627 27.0262C137.864 26.3008 137.252 25.4509 136.785 24.4819V29.4565H117.734L116.147 29.498L110.192 29.6638L110.161 29.1508C109.388 29.4669 108.512 29.6638 107.547 29.7312C107.283 29.7467 107.023 29.7622 106.748 29.7622C106.608 29.7622 106.463 29.7622 106.328 29.7571C106.199 29.7571 106.074 29.7467 105.944 29.7363V34.4259C106.577 34.2549 107.283 34.172 108.055 34.172C110.364 34.172 112.215 34.9285 113.559 36.4157C113.989 36.8925 114.357 37.4366 114.638 38.0325C114.679 37.9651 114.715 37.9081 114.762 37.8459C114.959 37.5661 115.156 37.3122 115.359 37.0738C115.872 36.4779 116.458 35.9753 117.101 35.5555C118.538 34.6332 120.26 34.172 122.236 34.172C123.73 34.172 125.079 34.4363 126.256 34.9544C127.293 35.4105 128.217 36.0685 128.984 36.9184V34.4725H136.526L136.536 34.5969C137.309 34.3171 138.196 34.1772 139.177 34.1772C141.205 34.1772 142.937 34.7472 144.322 35.882C144.758 36.2292 145.183 36.6645 145.567 37.1619C145.893 37.5972 146.184 38.0636 146.423 38.5558C146.433 38.5766 146.443 38.6025 146.454 38.6232L146.495 38.5455C146.786 38.0273 147.138 37.5246 147.538 37.0635C147.88 36.6696 148.259 36.3173 148.658 36.0064C150.214 34.7886 152.185 34.172 154.509 34.172C156.833 34.172 158.829 34.7938 160.37 36.0271C160.676 36.2706 160.977 36.5505 161.252 36.8458C161.75 37.3847 162.17 37.9962 162.507 38.6543C162.517 38.6802 162.533 38.7009 162.543 38.7268L162.574 38.6595C162.886 38.0791 163.264 37.5402 163.69 37.0531C164.016 36.6852 164.348 36.3639 164.711 36.0685C166.283 34.8094 168.285 34.1616 170.65 34.1616C173.488 34.1616 175.759 35.0633 177.388 36.8355C178.975 38.5558 179.784 40.9809 179.784 44.033C179.784 44.8 179.753 45.5565 179.686 46.282L179.504 48.2459H178.54L179.214 54.1376L177.222 54.4952C176.154 54.6921 175.163 54.8165 174.266 54.8735C173.41 54.9253 172.637 54.9512 171.968 54.9512C169.411 54.9512 167.243 54.3915 165.521 53.293C165.043 52.9924 164.582 52.6297 164.146 52.2152C163.653 51.7436 163.228 51.2306 162.875 50.6865C162.787 50.5518 162.704 50.4223 162.631 50.2823L163.072 54.1273L161.086 54.49C160.743 54.5522 160.411 54.6092 160.09 54.6558C159.447 54.7543 158.783 54.8268 158.124 54.8683C157.268 54.9201 156.49 54.946 155.816 54.946C152.979 54.946 150.624 54.2568 148.808 52.8992C148.534 52.6971 148.248 52.4587 147.989 52.21C147.444 51.6918 146.972 51.1063 146.589 50.4689C146.568 50.4378 146.547 50.4015 146.531 50.3704C146.516 50.4119 146.495 50.4533 146.474 50.4948C146.21 51.0441 145.888 51.5623 145.536 52.0234C145.204 52.4535 144.835 52.837 144.436 53.1686C143.051 54.3501 141.277 54.9564 139.177 54.9564C138.388 54.9564 137.657 54.8579 136.993 54.661V61.5425H128.969V52.1996C128.201 53.0546 127.273 53.7179 126.23 54.1739C125.073 54.6869 123.72 54.9564 122.221 54.9564C120.722 54.9564 119.383 54.6921 118.201 54.1635C117.164 53.7075 116.245 53.0391 115.478 52.1893V54.6506H107.454V42.608C107.454 42.038 107.329 41.8619 107.329 41.8619C107.329 41.8619 107.231 41.8463 107.101 41.8463C106.551 41.8463 105.934 41.8463 105.934 44.0123V54.6455H97.9099V52.6764C97.7803 52.7904 97.6454 52.9044 97.5054 53.008C95.8093 54.2983 93.4337 54.946 90.4305 54.946C89.0923 54.946 87.7956 54.832 86.5715 54.6092C85.3163 54.3864 84.1492 54.0495 83.1118 53.6039L81.5973 52.9614L82.6606 44.8621L85.2903 45.9866C86.2603 46.4011 87.225 46.7224 88.1638 46.9349C89.056 47.1421 89.9066 47.2458 90.6743 47.2458C91.6961 47.2458 92.0747 47.0489 92.1473 47.0022C92.1473 46.9815 92.1473 46.9504 92.1473 46.9038C92.1473 46.8416 92.1473 46.6861 91.582 46.4271L88.2417 44.8414C86.4626 44.0123 85.0414 42.9241 84.0247 41.6338C82.9199 40.214 82.3598 38.5714 82.3598 36.7526C82.3598 34.2445 83.2104 32.2443 84.8909 30.8038C85.5652 30.2234 86.3484 29.7674 87.225 29.4358H82.1056V3.8893H90.0467V13.6882C90.5031 13.3203 90.8973 12.8902 91.2396 12.3823C91.7895 11.5584 92.2096 10.605 92.4845 9.54787C92.775 8.42859 92.915 7.25232 92.915 6.05013V3.8893H100.882V6.05013C100.882 8.14877 100.571 10.2008 99.9484 12.144C99.3156 14.1286 98.3767 15.9164 97.1578 17.4709C97.1475 17.4865 97.1423 17.4968 97.1267 17.5124L99.3467 21.834C99.5075 20.5904 99.938 19.4815 100.649 18.5436C101.017 18.0513 101.473 17.5953 102.002 17.1963C102.199 17.046 102.412 16.9061 102.625 16.7765L101.038 16.7351L101.421 12.3823L101.722 9.10742L103.942 9.14887L107.08 9.19032C110.384 9.23696 112.843 9.95206 114.601 11.3667C114.949 11.6517 115.255 11.9522 115.535 12.2683C116.79 13.7244 117.428 15.5899 117.428 17.8336V22.1242L117.511 22.1346V9.27842H124.212C124.762 9.08151 125.374 8.97787 126.043 8.97787C127.044 8.97787 127.937 9.24732 128.684 9.76551C129.311 9.34578 130.224 8.97787 131.5 8.97787C133.668 8.97787 134.882 9.87951 135.515 10.6361C136.23 11.4807 136.63 12.6052 136.739 14.0613C137.102 13.2529 137.569 12.5171 138.139 11.8745C138.336 11.6517 138.544 11.4341 138.762 11.232C140.292 9.82251 142.289 9.06596 144.685 8.98305C144.841 8.98305 144.97 8.97787 145.105 8.97787C145.883 8.97787 146.635 9.05041 147.341 9.19032C147.688 9.25769 148.03 9.34578 148.362 9.44942V2.68711H160.946V20.7977C160.946 21.2381 160.982 21.5387 161.018 21.7304C161.153 21.7563 161.397 21.7822 161.77 21.7822C162.216 21.7822 163.041 21.6993 164.431 21.2951L166.885 20.5852L167.025 21.7926H170.775V16.9475H165.723V9.27323H170.77C170.282 8.52705 170.028 7.65132 170.028 6.70304C170.028 5.42831 170.484 4.29348 171.345 3.42811C172.227 2.55756 173.358 2.10156 174.634 2.10156C175.91 2.10156 177.046 2.55756 177.912 3.41775C178.783 4.29866 179.24 5.42831 179.24 6.70304C179.24 7.6565 178.986 8.53223 178.498 9.27323H178.788V21.7926H180.702C180.817 20.8961 181.076 20.067 181.48 19.3208C181.927 18.4969 182.554 17.7715 183.348 17.1807C183.545 17.0305 183.757 16.8905 183.97 16.761L182.383 16.7195L183.068 9.10223L188.431 9.1696C191.735 9.21623 194.199 9.93133 195.952 11.3512C197.824 12.8694 198.779 15.0458 198.779 17.8129V22.1035L201.175 22.4351H201.196Z" fill="#CC4478"/>
<path d="M73.8963 33.5966C72.2209 29.3216 69.8194 25.5233 66.5517 22.2794C66.3961 22.124 66.2664 21.9893 66.2768 21.725C66.4791 17.4292 65.7218 13.289 64.2488 9.25748C63.9687 8.50611 63.5848 8.03974 62.812 7.72365C58.9789 6.13801 55.0162 5.20527 50.8719 5.11718C49.4818 5.08091 48.1021 5.112 46.7224 5.30373C46.4267 5.34518 46.1518 5.34518 45.8821 5.13273C43.6414 3.33463 41.1828 1.9148 38.5479 0.774797C38.2315 0.640069 37.967 0.624524 37.6454 0.748888C34.8601 1.84744 32.22 3.22581 29.8029 5.00836C29.5332 5.20527 29.2738 5.24673 28.973 5.20009C26.9346 4.88918 24.8961 4.78036 22.837 4.884C19.2528 5.07055 15.8191 5.85819 12.4892 7.15883C12.1676 7.27801 11.9757 7.46974 11.8356 7.77547C9.95282 12.0142 8.96213 16.4395 8.94657 21.0824C8.94657 21.326 8.91026 21.5229 8.71316 21.6991C5.41951 24.7408 2.9402 28.3526 1.14036 32.441C0.974382 32.8141 0.948448 33.1302 1.10405 33.5292C2.78978 37.8146 5.1861 41.6388 8.46938 44.8827C8.66648 45.0744 8.74947 45.2661 8.7391 45.5407C8.71316 46.2507 8.69241 46.9658 8.72354 47.686C8.83765 51.2304 9.57937 54.6349 10.7827 57.9616C11.0628 58.7234 11.4518 59.2364 12.2558 59.4592C12.7174 59.5835 13.1531 59.8167 13.6044 59.9825C19.7767 62.2522 26.0528 62.7859 32.4586 61.0759C32.7179 61.0034 32.9046 61.0811 33.1121 61.2003C34.2325 61.848 35.4099 62.4128 36.5977 62.931C36.8103 63.0191 36.9919 63.0398 37.2149 62.9466C38.5635 62.418 39.8965 61.848 41.1725 61.1536C41.4733 60.993 41.7327 60.9567 42.0698 61.0604C44.8551 61.9309 47.7183 62.3247 50.6385 62.3506C50.8563 62.3351 51.0742 62.3144 51.292 62.3092C55.1822 62.2522 58.9271 61.4438 62.5371 60.0085C62.8587 59.8841 63.0506 59.6975 63.1855 59.3918C65.0475 55.1842 66.0797 50.7951 66.0486 46.1833C66.0486 45.8827 66.1005 45.6599 66.3391 45.4423C69.6068 42.4057 72.0913 38.8043 73.8859 34.7366C74.0623 34.3324 74.0519 33.9956 73.8963 33.6018V33.5966ZM61.6813 9.8793C61.8732 9.95702 61.9666 10.0762 62.0392 10.2576C62.9209 12.6205 63.507 15.0456 63.7508 17.5588C63.8234 18.3102 63.8701 19.0719 63.9376 19.8336C63.7093 19.8492 63.616 19.7144 63.5019 19.6263C60.7684 17.5743 57.7756 16.0509 54.4456 15.2114C54.233 15.1544 54.067 15.0611 53.9581 14.8435C52.6147 12.1904 50.8719 9.82748 48.7868 7.71329C48.7505 7.67701 48.7297 7.63556 48.6571 7.54229C53.2267 7.32465 57.5318 8.14856 61.6813 9.8793ZM56.204 30.3061C56.1625 29.9071 56.2973 29.5548 56.3336 29.1765C56.3596 28.9433 56.4892 29.021 56.6085 29.1247C58.0297 30.3942 59.2538 31.8296 60.2445 33.4619C60.3327 33.6018 60.3016 33.7002 60.229 33.8194C59.2798 35.3221 58.149 36.6642 56.8264 37.8457C56.8004 37.8613 56.759 37.8561 56.6552 37.882C56.6656 36.2808 56.5048 34.7314 56.121 33.2235C55.9809 32.6587 55.9135 32.1353 56.1521 31.5912C56.3284 31.1819 56.261 30.731 56.2091 30.3113L56.204 30.3061ZM56.1365 42.5146C56.2973 41.644 56.6656 41.0481 57.3918 40.5195C58.9582 39.3795 60.2653 37.9545 61.4116 36.3844C61.4582 36.3274 61.5205 36.2652 61.6138 36.1564C62.0547 37.0166 62.3452 37.8975 62.5993 38.7784C63.1284 40.5765 63.4811 42.4109 63.5641 44.2919C63.5745 44.5044 63.5537 44.6702 63.3722 44.8153C60.4209 47.2197 57.1272 48.94 53.3149 49.795C54.6583 47.4528 55.6593 45.0744 56.1365 42.5094V42.5146ZM61.6605 31.1767C60.7269 29.8346 59.7258 28.6842 58.6055 27.6323C58.0712 27.1348 57.5059 26.6633 56.9197 26.2332C56.759 26.1088 56.6085 25.9948 56.6241 25.7513C56.7019 23.1345 56.2143 20.6109 55.3948 18.134C55.3844 18.1081 55.4 18.0822 55.4104 18.02C57.205 18.6055 58.8752 19.4398 60.4624 20.4399C61.479 21.0824 62.4178 21.8234 63.3566 22.5696C63.673 22.8235 63.7923 23.0982 63.7508 23.5075C63.4604 26.1451 62.7964 28.6738 61.6657 31.1715L61.6605 31.1767ZM30.2801 7.69774C32.5416 5.91519 34.9846 4.44872 37.6558 3.34499C37.9151 3.23617 38.1434 3.21026 38.4079 3.33463C43.6103 5.796 47.8739 9.34039 50.8926 14.2683C52.4902 16.8748 53.5742 19.6833 53.9995 22.7199C54.0825 23.2744 54.2018 23.834 54.1188 24.404C54.3315 25.0984 54.1759 25.7979 54.1707 26.5182C53.7506 25.8394 53.263 25.2227 52.8221 24.575C52.651 24.3263 52.7236 23.9998 52.734 23.7045C52.3605 22.1862 51.9922 20.6731 51.624 19.16C51.2972 17.8231 50.4258 17.0302 49.1239 16.7245C47.4537 16.3462 45.8095 15.8747 44.1134 15.6311C43.9526 15.6156 43.8229 15.5482 43.7088 15.455C42.2513 14.2994 40.6071 13.4496 39.0147 12.5117C37.9618 11.9002 36.8518 11.9883 35.83 12.6309C34.3829 13.5532 32.8735 14.3771 31.4886 15.398C31.0789 15.6985 30.5965 15.6052 30.1452 15.6933C28.667 15.9939 27.2043 16.3773 25.7468 16.7608C24.5331 17.0821 23.7447 17.9112 23.4542 19.16C23.0859 20.7093 22.728 22.2587 22.3649 23.8029C22.4376 24.2123 22.2768 24.5128 22.0226 24.8341C21.6025 25.3678 21.2394 25.9482 20.7674 26.6218C20.8089 25.8342 20.6948 25.1657 20.866 24.5025C20.9593 22.1188 21.5454 19.844 22.4946 17.6728C24.2374 13.6983 26.8619 10.3871 30.2801 7.70292V7.69774ZM53.6987 31.244C53.2786 31.9384 52.8533 32.6276 52.3813 33.4049C52.1219 32.5395 51.8055 31.7881 51.3958 31.0834C51.2972 30.9124 51.2557 30.7725 51.3698 30.5911C51.8107 29.9071 52.1115 29.1558 52.3761 28.2904C52.8584 29.0677 53.3097 29.7724 53.7402 30.4927C53.8906 30.7414 53.8388 31.0109 53.6987 31.244ZM36.7844 19.5383C38.0604 20.5228 38.8021 21.8545 39.2689 23.3676C39.3882 23.7718 39.1133 23.7252 38.8747 23.6889C37.6402 23.5024 36.4265 23.5801 35.2128 23.8962C32.3133 24.6476 29.7562 27.5287 29.3672 30.4823C29.2894 31.0575 29.2894 31.6327 29.2738 32.27C27.6763 31.6327 26.4729 30.6378 25.669 29.1868C24.6057 27.2696 24.4812 25.2435 24.9843 23.15C25.2592 22.0411 25.5134 20.9218 25.7675 19.8077C25.8453 19.4761 25.9854 19.1859 26.3329 19.1133C28.0809 18.7299 29.777 18.0977 31.5872 17.9941C33.5063 17.8801 35.2543 18.3568 36.7844 19.5383ZM35.0209 15.9835C35.8041 15.4964 36.4991 15.0508 37.2149 14.6259C37.4431 14.4911 37.7025 14.517 37.9255 14.6518C38.6361 15.0715 39.3415 15.512 40.1195 15.9835C39.2274 16.2789 38.4286 16.5846 37.6973 17.0458C37.6039 17.1028 37.5106 17.1235 37.4172 17.0613C36.7066 16.6001 35.913 16.2944 35.0209 15.9887V15.9835ZM43.3354 31.8399C43.3354 35.0631 40.7627 37.6229 37.5313 37.6281C34.3414 37.6281 31.6805 35.0061 31.6909 31.8348C31.7065 28.4718 34.414 26.0052 37.5261 25.9948C40.6019 25.9793 43.4339 28.5184 43.3354 31.8399ZM25.2696 33.1976C25.3993 32.866 25.5134 32.7468 25.8505 33.0266C26.9242 33.9334 28.1742 34.519 29.5228 34.8713C29.777 34.9439 29.9274 35.0579 30.0415 35.2859C30.7676 36.7679 31.7998 37.9804 33.2262 38.8406C33.4441 38.9702 33.5634 39.136 33.6412 39.3692C34.0198 40.4988 34.5489 41.5559 35.3113 42.4731C35.581 42.7944 35.4514 42.898 35.1402 43.0172C33.4752 43.6649 31.7739 43.753 30.0363 43.354C28.9211 43.1001 27.806 42.8151 26.6856 42.5819C26.1202 42.4679 25.8194 42.1777 25.7053 41.6181C25.4148 40.1879 24.9687 38.7888 24.7353 37.3431C24.6783 36.9752 24.6938 36.6124 24.6783 36.2497C24.642 35.1822 24.8858 34.1718 25.2748 33.1872L25.2696 33.1976ZM37.4483 44.5355C37.5572 44.4681 37.6402 44.551 37.7232 44.6028C38.4234 45.0226 39.1703 45.3387 40.0366 45.634C39.2741 46.1004 38.5998 46.5253 37.9203 46.9398C37.6765 47.0953 37.4224 47.1316 37.1682 46.9761C36.4576 46.5564 35.747 46.1263 34.9482 45.6444C35.8767 45.3127 36.7014 45.0018 37.4535 44.5355H37.4483ZM36.8103 40.4625C36.7273 40.3434 36.6184 40.2294 36.6184 40.0273C42.158 40.6854 47.2463 35.3429 45.4153 29.2128C46.4631 29.534 47.35 30.0574 48.1073 30.7777C49.487 32.0887 50.1613 33.7261 50.3221 35.6072C50.4621 37.3223 49.9279 38.9235 49.57 40.5558C49.0669 42.784 49.3936 42.3125 47.2411 42.8669C45.9599 43.1934 44.6788 43.5976 43.3302 43.6183C40.6175 43.6649 38.3871 42.7322 36.8051 40.4522L36.8103 40.4625ZM49.7256 28.5547C49.6063 28.8241 49.5077 28.7982 49.2899 28.6324C47.7909 27.425 46.074 26.7099 44.1601 26.4819C44.0304 26.4716 43.8644 26.456 43.7763 26.3835C43.2057 25.8549 42.6352 25.3212 42.0024 24.86C41.7741 24.689 41.8623 24.3263 41.8312 24.0568C41.6134 22.1862 40.8613 20.5435 39.7098 19.0823C39.4608 18.7662 39.5957 18.7247 39.8446 18.6211C40.7368 18.2376 41.8468 18.0096 42.9567 18.0096C44.2223 17.9941 45.4153 18.3723 46.6342 18.6366C47.2981 18.7765 47.9569 18.9527 48.626 19.0978C48.9942 19.1807 49.2069 19.4087 49.2847 19.7611C49.6374 21.3467 50.1561 22.8961 50.3532 24.5076C50.5295 25.9067 50.2754 27.254 49.7256 28.5495V28.5547ZM23.7187 30.9746C23.2778 31.6586 22.9718 32.4048 22.6658 33.3012C22.1679 32.4929 21.7166 31.7881 21.3016 31.0627C21.1927 30.8865 21.2083 30.6274 21.3172 30.4357C21.7322 29.7258 22.173 29.021 22.6606 28.2178C22.9614 29.1298 23.2623 29.8968 23.698 30.6015C23.7758 30.7259 23.7913 30.845 23.7135 30.9746H23.7187ZM18.1169 40.96C18.48 41.2295 18.6615 41.5041 18.7342 41.9497C19.1595 44.5666 20.0775 47.0331 21.3224 49.3701C21.3691 49.453 21.4054 49.5411 21.4728 49.6862C19.9997 49.3546 18.6304 48.8623 17.313 48.2457C15.2019 47.2611 13.2828 45.9864 11.5296 44.4526C11.2962 44.2556 11.2132 44.0536 11.2495 43.7634C11.54 41.3227 12.1002 38.9443 13.0494 36.6694C13.0597 36.6383 13.0805 36.6021 13.096 36.5813C13.1946 36.4311 13.1842 36.1616 13.3554 36.1305C13.5577 36.0994 13.6044 36.3637 13.7081 36.5036C14.9478 38.2136 16.4104 39.7112 18.1117 40.96H18.1169ZM14.7921 33.3582C15.4353 32.1768 17.5204 29.7828 18.5941 29.0573C18.8846 29.8087 18.646 30.6222 18.8949 31.3114C19.2269 32.2493 18.9676 33.0732 18.7757 33.9593C18.4956 35.2548 18.3659 36.571 18.3503 37.9856C17.5982 37.3586 16.9914 36.685 16.4001 35.9906C15.8347 35.3118 15.3264 34.5967 14.8544 33.8401C14.7662 33.7002 14.6677 33.581 14.787 33.3582H14.7921ZM11.7786 16.1441C12.1624 13.9263 12.7952 11.7759 13.6407 9.69275C13.7755 9.35593 13.9674 9.15384 14.3098 9.03466C17.8161 7.78065 21.4209 7.15883 25.1399 7.23656C25.7053 7.24692 26.2603 7.3091 26.8256 7.34538C26.8723 7.41792 26.9242 7.4801 26.9812 7.55265C26.3848 8.08638 25.752 8.57865 25.2073 9.15902C23.6876 10.7809 22.3961 12.579 21.3535 14.543C21.1668 14.8798 20.9489 15.0819 20.5444 15.1855C17.4426 15.9161 14.6158 17.2686 11.9913 19.0563C11.8356 19.1652 11.6956 19.3154 11.4518 19.3673C11.4363 18.2635 11.6074 17.2012 11.7838 16.1493L11.7786 16.1441ZM11.68 22.3209C14.066 20.3933 16.6957 18.8905 19.6315 17.9422C19.6574 17.9319 19.6885 17.9474 19.756 17.9578C19.4188 19.0304 19.0661 20.0927 18.8483 21.1913C18.5578 22.6266 18.3503 24.0724 18.3814 25.5336C18.3866 25.8964 18.2985 26.1347 17.9872 26.3627C16.2756 27.6271 14.8025 29.1402 13.5473 30.8606C13.5214 30.902 13.4747 30.9279 13.3917 31.0005C12.6655 29.3993 12.1935 27.767 11.8564 26.0881C11.6437 25.0258 11.5296 23.9584 11.4466 22.8805C11.4363 22.6422 11.4881 22.4712 11.68 22.3105V22.3209ZM9.13848 41.5248C9.11255 41.6544 9.06587 41.7735 9.014 41.9601C6.67992 39.3484 4.94232 36.4518 3.63005 33.3012C3.56262 33.1406 3.54706 33.0059 3.63005 32.8349C4.989 29.8864 6.74735 27.2022 8.98288 24.8341C9.014 24.7978 9.06068 24.7823 9.13848 24.7253C9.34077 25.5958 9.43413 26.4664 9.62605 27.311C10.0825 29.3475 10.762 31.2959 11.6956 33.151C11.8201 33.3893 11.8512 33.5759 11.7112 33.835C10.4456 36.2652 9.57937 38.8251 9.13848 41.53V41.5248ZM23.5424 59.6509C20.1554 59.4747 16.8928 58.7182 13.7392 57.4642C13.262 57.2776 13.0079 57.0082 12.8367 56.5211C11.8512 53.6762 11.2392 50.764 11.1458 47.7482V47.3958C11.3481 47.3233 11.4259 47.4891 11.5296 47.5668C14.7558 49.9401 18.2829 51.6398 22.2612 52.3031C23.0496 52.4326 23.5424 52.7642 24.0196 53.3912C25.5601 55.4173 27.3806 57.174 29.3983 58.7285C29.5384 58.8425 29.6888 58.9565 29.8236 59.0654C29.8496 59.0913 29.8599 59.1224 29.9066 59.2156C27.7696 59.625 25.6586 59.7701 23.5424 59.6509ZM37.3913 60.2883C37.0904 60.4178 36.8466 60.4126 36.5458 60.2727C32.8216 58.5161 29.5332 56.1687 26.8308 53.0492C24.2841 50.1059 22.3701 46.8103 21.4313 43.0016C20.8037 40.4366 20.7207 38.1463 20.9178 36.1875C21.0942 36.1512 21.089 36.3171 21.1357 36.4C21.5351 37.0684 21.9396 37.7421 22.3131 38.4261C22.7643 39.2396 22.8162 40.1724 23.0652 41.0429C23.1948 41.4885 23.2778 41.9445 23.3971 42.3954C23.7758 43.9033 24.7976 44.6909 26.2862 44.9811C26.9553 45.1107 27.6089 45.292 28.2831 45.4216C30.5394 45.8672 32.5208 46.945 34.4348 48.1628C34.9534 48.4944 35.4721 48.8209 36.0219 49.1059C37.0956 49.6655 38.1745 49.6085 39.2118 48.997C39.9328 48.5773 40.6434 48.142 41.3281 47.6757C42.4277 46.9295 43.6155 46.3595 44.8551 45.9346C46.0066 45.5407 47.2359 45.3646 48.4392 45.0744C49.2017 44.8982 49.9486 44.7168 50.5762 44.1831C51.3439 43.5302 51.5929 42.6493 51.7951 41.7373C52.0026 40.8149 52.2101 39.8977 52.4227 38.9754C52.4591 38.8095 52.4954 38.6437 52.5784 38.4986C53.0607 37.6488 53.5639 36.8145 54.124 35.8559C54.5597 41.3694 53.0555 46.204 49.8916 50.5723C46.6705 55.0287 42.4173 58.1482 37.3861 60.2831L37.3913 60.2883ZM63.1128 51.7175C62.7135 53.7229 62.1222 55.6764 61.3389 57.5782C61.2248 57.8476 61.0796 58.0031 60.8047 58.1067C57.9467 59.1327 55.011 59.7545 51.9767 59.8996C49.4922 60.0136 47.044 59.8271 44.6217 59.2778C44.5854 59.2726 44.5439 59.2519 44.4506 59.2208C45.4153 58.5161 46.3282 57.8321 47.1944 57.0755C48.6623 55.806 50.0057 54.4224 51.1987 52.899C51.3543 52.6969 51.5099 52.5311 51.7951 52.4948C55.068 52.1165 58.1075 51.018 60.9707 49.4116C61.868 48.8986 62.7238 48.3389 63.6263 47.7119C63.5589 49.1059 63.3826 50.4169 63.1232 51.7175H63.1128ZM71.3755 34.4101C70.0321 37.3172 68.2686 39.9495 66.0901 42.2969C66.0382 42.3539 65.976 42.4057 65.8722 42.499C65.5714 40.2708 65.0683 38.1566 64.2695 36.1098C63.9791 35.3688 63.6627 34.6381 63.2944 33.9334C63.1958 33.7417 63.1699 33.5914 63.284 33.379C64.6378 30.8243 65.504 28.109 65.9812 25.1657C67.4283 26.7825 68.6109 28.4666 69.6483 30.2595C70.3018 31.3788 70.862 32.5499 71.3547 33.7417C71.4481 33.9697 71.4948 34.1562 71.3859 34.405L71.3755 34.4101Z" fill="#790EAE"/>
<path d="M63.9326 19.8288C63.7043 19.8443 63.611 19.7096 63.4969 19.6215C60.7634 17.5695 57.7706 16.046 54.4406 15.2066C54.228 15.1496 54.062 15.0563 53.9531 14.8387C52.6097 12.1856 50.8669 9.82263 48.7818 7.70844C48.7455 7.67216 48.7247 7.63071 48.6521 7.53744C53.2217 7.3198 57.5268 8.14371 61.6763 9.87445C61.8682 9.95218 61.9616 10.0714 62.0342 10.2527C62.9159 12.6156 63.502 15.0407 63.7458 17.5539C63.8184 18.3053 63.8651 19.067 63.9326 19.8288Z" fill="#F3F3F3"/>
<path d="M53.702 31.2442C53.2822 31.9385 52.8573 32.6277 52.3858 33.405C52.1267 32.5396 51.8106 31.7883 51.4012 31.0835C51.3028 30.9125 51.2613 30.7726 51.3753 30.5913C51.8158 29.9073 52.1163 29.1559 52.3806 28.2905C52.8625 29.0678 53.3133 29.7725 53.7434 30.4928C53.8937 30.7415 53.8419 31.011 53.702 31.2442Z" fill="#F3F3F3"/>
<path d="M60.2289 33.8143C59.2797 35.3171 58.149 36.6592 56.8263 37.8406C56.8004 37.8562 56.7589 37.851 56.6551 37.8769C56.6655 36.2757 56.5047 34.7263 56.1209 33.2184C55.9808 32.6536 55.9134 32.1302 56.152 31.5861C56.3284 31.1768 56.2609 30.7259 56.2091 30.3062C56.1676 29.9072 56.3024 29.5548 56.3387 29.1766C56.3647 28.9434 56.4943 29.0211 56.6136 29.1248C58.0348 30.3943 59.2589 31.8297 60.2496 33.462C60.3378 33.6019 60.3067 33.7003 60.2341 33.8195L60.2289 33.8143Z" fill="#F3F3F3"/>
<path d="M63.7507 23.5081C63.4603 26.1457 62.7964 28.6744 61.6656 31.1721C60.732 29.83 59.7309 28.6796 58.6106 27.6277C58.0763 27.1302 57.511 26.6587 56.9248 26.2286C56.764 26.1042 56.6136 25.9902 56.6292 25.7467C56.707 23.1299 56.2194 20.6063 55.3999 18.1294C55.3895 18.1035 55.4051 18.0776 55.4155 18.0154C57.2101 18.6009 58.8803 19.4352 60.4675 20.4353C61.4841 21.0779 62.4229 21.8189 63.3617 22.565C63.6781 22.8189 63.7974 23.0936 63.7559 23.503L63.7507 23.5081Z" fill="#F3F3F3"/>
<path d="M71.3756 34.4099C70.0322 37.317 68.2687 39.9493 66.0902 42.2967C66.0383 42.3537 65.9761 42.4055 65.8724 42.4988C65.5715 40.2706 65.0684 38.1564 64.2696 36.1096C63.9792 35.3686 63.6628 34.6379 63.2945 33.9332C63.1959 33.7415 63.17 33.5912 63.2841 33.3788C64.6379 30.8241 65.5041 28.1088 65.9813 25.1655C67.4284 26.7823 68.611 28.4664 69.6484 30.2593C70.3019 31.3786 70.8621 32.5497 71.3549 33.7415C71.4482 33.9695 71.4949 34.156 71.386 34.4048L71.3756 34.4099Z" fill="#F3F3F3"/>
<path d="M63.3775 44.8149C60.4262 47.2193 57.1325 48.9397 53.3202 49.7947C54.6636 47.4525 55.6646 45.074 56.1418 42.509C56.3026 41.6385 56.6709 41.0425 57.3971 40.514C58.9635 39.374 60.2706 37.949 61.4169 36.3789C61.4635 36.3219 61.5258 36.2597 61.6191 36.1509C62.06 37.0111 62.3505 37.892 62.6046 38.7729C63.1337 40.571 63.4864 42.4054 63.5694 44.2864C63.5798 44.4988 63.559 44.6646 63.3775 44.8097V44.8149Z" fill="#F3F3F3"/>
<path d="M63.6157 47.7119C63.5483 49.1058 63.3719 50.4168 63.1126 51.7175C62.7132 53.7229 62.1219 55.6764 61.3387 57.5781C61.2246 57.8476 61.0794 58.0031 60.8045 58.1067C57.9465 59.1327 55.0107 59.7545 51.9764 59.8996C49.4919 60.0136 47.0437 59.8271 44.6215 59.2778C44.5852 59.2726 44.5437 59.2519 44.4503 59.2208C45.4151 58.5161 46.328 57.8321 47.1942 57.0755C48.662 55.806 50.0054 54.4224 51.1984 52.8989C51.354 52.6968 51.5096 52.531 51.7949 52.4948C55.0678 52.1165 58.1073 51.0179 60.9704 49.4116C61.8678 48.8986 62.7236 48.3389 63.6261 47.7119H63.6157Z" fill="#F3F3F3"/>
<path d="M49.8967 50.5776C46.6757 55.034 42.4225 58.1534 37.3912 60.2883C37.0904 60.4179 36.8466 60.4127 36.5458 60.2728C32.8216 58.5162 29.5332 56.1688 26.8308 53.0493C24.2841 50.106 22.3701 46.8104 21.4313 43.0017C20.8037 40.4367 20.7207 38.1463 20.9178 36.1876C21.0942 36.1513 21.089 36.3171 21.1356 36.4C21.535 37.0685 21.9396 37.7421 22.3131 38.4262C22.7643 39.2397 22.8162 40.1724 23.0652 41.043C23.1948 41.4886 23.2778 41.9446 23.3971 42.3954C23.7758 43.9034 24.7976 44.691 26.2862 44.9812C26.9553 45.1107 27.6088 45.2921 28.2831 45.4216C30.5394 45.8673 32.5208 46.9451 34.4347 48.1628C34.9534 48.4945 35.4721 48.8209 36.0219 49.1059C37.0956 49.6656 38.1744 49.6086 39.2118 48.9971C39.9328 48.5774 40.6434 48.1421 41.3281 47.6757C42.4277 46.9296 43.6155 46.3596 44.8551 45.9346C46.0066 45.5408 47.2359 45.3646 48.4392 45.0745C49.2017 44.8983 49.9486 44.7169 50.5762 44.1832C51.3439 43.5303 51.5928 42.6494 51.7951 41.7373C52.0026 40.815 52.2101 39.8978 52.4227 38.9754C52.459 38.8096 52.4953 38.6438 52.5783 38.4987C53.0607 37.6489 53.5638 36.8146 54.124 35.856C54.5597 41.3694 53.0555 46.2041 49.8915 50.5724L49.8967 50.5776Z" fill="#F3F3F3"/>
<path d="M29.9012 59.221C27.7642 59.6304 25.6532 59.7755 23.537 59.6563C20.1499 59.4801 16.8874 58.7236 13.7338 57.4696C13.2566 57.283 13.0025 57.0136 12.8313 56.5265C11.8458 53.6816 11.2337 50.7694 11.1404 47.7536V47.4012C11.3427 47.3287 11.4205 47.4945 11.5242 47.5722C14.7504 49.9455 18.2775 51.6452 22.2558 52.3084C23.0442 52.438 23.537 52.7696 24.0141 53.3966C25.5546 55.4227 27.3752 57.1794 29.3929 58.7339C29.5329 58.8479 29.6834 58.9619 29.8182 59.0708C29.8442 59.0967 29.8545 59.1278 29.9012 59.221Z" fill="#F3F3F3"/>
<path d="M21.4777 49.6866C20.0046 49.355 18.6353 48.8627 17.3178 48.2461C15.2068 47.2615 13.2876 45.9868 11.5345 44.453C11.3011 44.2561 11.2181 44.054 11.2544 43.7638C11.5449 41.3231 12.105 38.9447 13.0542 36.6698C13.0646 36.6388 13.0854 36.6025 13.1009 36.5818C13.1995 36.4315 13.1891 36.162 13.3603 36.1309C13.5625 36.0998 13.6092 36.3641 13.713 36.504C14.9526 38.214 16.4153 39.7116 18.1166 40.9604C18.4797 41.2299 18.6612 41.5045 18.7338 41.9501C19.1592 44.567 20.0772 47.0335 21.3221 49.3705C21.3688 49.4535 21.4051 49.5415 21.4725 49.6866H21.4777Z" fill="#F3F3F3"/>
<path d="M11.7113 33.8296C10.4457 36.2599 9.57948 38.8197 9.1386 41.5246C9.11267 41.6542 9.06598 41.7734 9.01412 41.9599C6.68003 39.3483 4.94244 36.4516 3.63017 33.301C3.56274 33.1404 3.54718 33.0057 3.63017 32.8347C4.98912 29.8862 6.74746 27.202 8.98299 24.8339C9.01412 24.7976 9.0608 24.7821 9.1386 24.7251C9.34089 25.5956 9.43425 26.4662 9.62616 27.3108C10.0826 29.3473 10.7621 31.2957 11.6957 33.1508C11.8202 33.3891 11.8513 33.5757 11.7113 33.8348V33.8296Z" fill="#F3F3F3"/>
<path d="M18.7808 33.9596C18.5007 35.2551 18.371 36.5713 18.3554 37.9859C17.6033 37.3589 16.9965 36.6853 16.4052 35.9909C15.8398 35.3121 15.3315 34.597 14.8595 33.8405C14.7713 33.7005 14.6728 33.5814 14.7921 33.3585C15.4352 32.1771 17.5204 29.7831 18.594 29.0576C18.8845 29.809 18.6459 30.6225 18.8949 31.3117C19.2268 32.2496 18.9675 33.0735 18.7756 33.9596H18.7808Z" fill="#F3F3F3"/>
<path d="M23.7215 30.9752C23.2811 31.6593 22.9754 32.4054 22.6696 33.3019C22.1722 32.4935 21.7213 31.7888 21.3068 31.0633C21.198 30.8872 21.2135 30.6281 21.3223 30.4363C21.7369 29.7264 22.1773 29.0217 22.6644 28.2185C22.965 29.1305 23.2655 29.8974 23.7008 30.6022C23.7785 30.7265 23.7941 30.8457 23.7164 30.9752H23.7215Z" fill="#F3F3F3"/>
<path d="M40.0314 45.6346C39.2689 46.1009 38.5947 46.5258 37.9152 46.9404C37.6714 47.0958 37.4172 47.1321 37.1631 46.9767C36.4525 46.5569 35.7419 46.1268 34.9431 45.6449C35.8716 45.3133 36.6963 45.0024 37.4484 44.536C37.5573 44.4687 37.6403 44.5516 37.7233 44.6034C38.4235 45.0231 39.1704 45.3392 40.0366 45.6346H40.0314Z" fill="#F3F3F3"/>
<path d="M35.1348 43.0226C33.4698 43.6703 31.7685 43.7584 30.0309 43.3594C28.9157 43.1055 27.8005 42.8205 26.6802 42.5873C26.1148 42.4733 25.814 42.1831 25.6999 41.6235C25.4094 40.1933 24.9633 38.7942 24.7299 37.3485C24.6729 36.9806 24.6884 36.6178 24.6729 36.2551C24.6366 35.1877 24.8804 34.1772 25.2694 33.1926C25.399 32.861 25.5131 32.7418 25.8503 33.0216C26.924 33.9285 28.174 34.514 29.5226 34.8664C29.7767 34.9389 29.9272 35.0529 30.0413 35.2809C30.7674 36.7629 31.7996 37.9755 33.226 38.8357C33.4438 38.9652 33.5631 39.131 33.6409 39.3642C34.0196 40.4939 34.5486 41.551 35.3111 42.4681C35.5808 42.7894 35.4512 42.8931 35.1399 43.0122L35.1348 43.0226Z" fill="#F3F3F3"/>
<path d="M49.5753 40.5607C49.0722 42.7889 49.3989 42.3173 47.2464 42.8718C45.9652 43.1983 44.6841 43.6024 43.3355 43.6232C40.6228 43.6698 38.3924 42.7371 36.8104 40.4571C36.7275 40.3379 36.6185 40.2239 36.6185 40.0218C42.1581 40.6799 47.2464 35.3374 45.4154 29.2073C46.4632 29.5285 47.3501 30.0519 48.1074 30.7722C49.4871 32.0832 50.1614 33.7207 50.3222 35.6017C50.4622 37.3169 49.928 38.9181 49.5701 40.5503L49.5753 40.5607Z" fill="#F3F3F3"/>
<path d="M43.3354 31.8398C43.3354 35.0629 40.7627 37.6228 37.5313 37.6279C34.3414 37.6279 31.6806 35.0059 31.6909 31.8346C31.7065 28.4716 34.414 26.0051 37.5262 25.9947C40.602 25.9792 43.434 28.5183 43.3354 31.8398Z" fill="#F3F3F3"/>
<path d="M40.1195 15.9779C39.2274 16.2732 38.4286 16.579 37.6973 17.0401C37.6039 17.0971 37.5106 17.1179 37.4172 17.0557C36.7066 16.5945 35.913 16.2888 35.0209 15.983C35.8041 15.4959 36.4991 15.0503 37.2149 14.6254C37.4431 14.4907 37.7025 14.5166 37.9255 14.6513C38.6361 15.071 39.3415 15.5115 40.1195 15.983V15.9779Z" fill="#F3F3F3"/>
<path d="M49.731 28.5548C49.6117 28.8242 49.5131 28.7983 49.2953 28.6325C47.7963 27.4252 46.0794 26.7101 44.1655 26.4821C44.0358 26.4717 43.8698 26.4561 43.7816 26.3836C43.2111 25.8551 42.6405 25.3213 42.0077 24.8601C41.7795 24.6891 41.8677 24.3264 41.8366 24.057C41.6187 22.1863 40.8666 20.5437 39.7152 19.0824C39.4662 18.7663 39.601 18.7248 39.85 18.6212C40.7421 18.2377 41.8521 18.0097 42.9621 18.0097C44.2277 17.9942 45.4207 18.3725 46.6396 18.6367C47.3035 18.7767 47.9622 18.9528 48.6313 19.0979C48.9996 19.1808 49.2123 19.4088 49.2901 19.7612C49.6428 21.3468 50.1615 22.8962 50.3586 24.5078C50.5349 25.9069 50.2808 27.2542 49.731 28.5496V28.5548Z" fill="#F3F3F3"/>
<path d="M38.8798 23.689C37.6453 23.5025 36.4316 23.5802 35.2179 23.8963C32.3184 24.6477 29.7613 27.5288 29.3723 30.4824C29.2945 31.0576 29.2945 31.6328 29.279 32.2702C27.6814 31.6328 26.4781 30.6379 25.6741 29.187C24.6108 27.2697 24.4863 25.2436 24.9894 23.1501C25.2643 22.0412 25.5185 20.9219 25.7726 19.8078C25.8504 19.4762 25.9905 19.186 26.338 19.1135C28.086 18.73 29.7821 18.0978 31.5923 17.9942C33.5114 17.8802 35.2594 18.3569 36.7895 19.5384C38.0655 20.5229 38.8072 21.8547 39.274 23.3678C39.3933 23.7719 39.1184 23.7253 38.8798 23.689Z" fill="#F3F3F3"/>
<path d="M19.7557 17.9583C19.4185 19.0309 19.0658 20.0932 18.848 21.1918C18.5575 22.6271 18.35 24.0729 18.3811 25.5341C18.3863 25.8969 18.2982 26.1352 17.9869 26.3632C16.2753 27.6276 14.8022 29.1407 13.547 30.8611C13.5211 30.9025 13.4744 30.9284 13.3914 31.001C12.6652 29.3998 12.1932 27.7675 11.8561 26.0886C11.6434 25.0263 11.5293 23.9589 11.4463 22.881C11.4359 22.6427 11.4878 22.4717 11.6797 22.311C14.0657 20.3834 16.6954 18.8807 19.6312 17.9324C19.6571 17.922 19.6882 17.9376 19.7557 17.9479V17.9583Z" fill="#F3F3F3"/>
<path d="M26.9867 7.54787C26.3902 8.0816 25.7574 8.57387 25.2128 9.15424C23.6931 10.7762 22.4015 12.5743 21.359 14.5382C21.1723 14.875 20.9544 15.0771 20.5498 15.1807C17.4481 15.9114 14.6213 17.2638 11.9967 19.0516C11.8411 19.1604 11.7011 19.3107 11.4573 19.3625C11.4417 18.2587 11.6129 17.1965 11.7892 16.1445C12.1731 13.9267 12.8059 11.7763 13.6513 9.69315C13.7862 9.35633 13.9781 9.15424 14.3204 9.03506C17.8267 7.78105 21.4316 7.15923 25.1506 7.23696C25.7159 7.24732 26.2709 7.3095 26.8363 7.34578C26.883 7.41832 26.9348 7.4805 26.9919 7.55305L26.9867 7.54787Z" fill="#F3F3F3"/>
<path d="M54.1705 26.5183C53.7504 25.8394 53.2628 25.2228 52.8219 24.5751C52.6508 24.3263 52.7234 23.9999 52.7338 23.7045C52.3603 22.1862 51.992 20.6731 51.6238 19.16C51.297 17.8231 50.4256 17.0303 49.1237 16.7246C47.4536 16.3463 45.8093 15.8747 44.1132 15.6312C43.9524 15.6157 43.8228 15.5483 43.7086 15.455C42.2511 14.2995 40.6069 13.4496 39.0145 12.5117C37.9616 11.9003 36.8516 11.9884 35.8298 12.6309C34.3827 13.5533 32.8733 14.3772 31.4884 15.398C31.0787 15.6986 30.5963 15.6053 30.145 15.6934C28.6668 15.9939 27.2041 16.3774 25.7466 16.7608C24.5329 17.0821 23.7445 17.9112 23.454 19.16C23.0857 20.7094 22.7278 22.2588 22.3648 23.803C22.4374 24.2123 22.2766 24.5129 22.0224 24.8342C21.6023 25.3679 21.2392 25.9482 20.7672 26.6219C20.8087 25.8342 20.6946 25.1658 20.8658 24.5025C20.9591 22.1189 21.5452 19.844 22.4944 17.6728C24.2372 13.6984 26.8618 10.3872 30.2799 7.70298C32.5414 5.92042 34.9844 4.45396 37.6556 3.35023C37.9149 3.24141 38.1432 3.2155 38.4077 3.33987C43.6101 5.80124 47.8737 9.34562 50.8924 14.2736C52.49 16.88 53.574 19.6886 53.9994 22.7251C54.0823 23.2796 54.2016 23.8392 54.1187 24.4092C54.3313 25.1036 54.1757 25.8032 54.1705 26.5234V26.5183Z" fill="#F3F3F3"/>
<path d="M88.2061 36.794C88.2061 37.3537 88.3825 37.846 88.7404 38.2709C89.0931 38.6958 89.6066 39.0792 90.2757 39.4161L93.2581 40.8981C94.7882 41.6546 95.9553 42.5303 96.7696 43.5253C97.5839 44.5202 97.9937 45.6654 97.9937 46.9608C97.9937 48.8677 97.3402 50.3186 96.0227 51.3187C94.7104 52.3137 92.7861 52.8163 90.2601 52.8163C89.0516 52.8163 87.8949 52.7178 86.7901 52.5157C85.6853 52.3188 84.6843 52.0287 83.7869 51.6504L84.2641 48.0127C85.3637 48.4843 86.4426 48.8418 87.5059 49.0854C88.5692 49.3289 89.5651 49.4533 90.5039 49.4533C91.7021 49.4533 92.6098 49.2408 93.2218 48.8159C93.839 48.391 94.1451 47.7692 94.1451 46.9505C94.1451 45.883 93.5382 45.0694 92.3193 44.5098L89.0049 42.9345C87.5111 42.235 86.3648 41.3696 85.5608 40.3436C84.7569 39.3124 84.3523 38.131 84.3523 36.794C84.3523 34.9338 84.9436 33.4984 86.1314 32.4827C87.3192 31.4619 88.9945 30.9541 91.1626 30.9541C92.5216 30.9541 93.7716 31.1769 94.9127 31.6226C96.059 32.063 97.1016 32.7367 98.0559 33.6331L95.5818 36.3588C94.809 35.6799 94.0621 35.1721 93.3411 34.8249C92.6149 34.4778 91.894 34.3119 91.173 34.3119C90.2342 34.3119 89.5028 34.5244 88.9842 34.9441C88.4655 35.369 88.2061 35.9857 88.2061 36.794Z" fill="#F3F3F3"/>
<path d="M94.3635 17.1814L99.5711 27.3119H95.1934L91.3655 19.3733C90.2607 19.9381 89.0418 20.3009 87.7139 20.4511V27.3119H84.0987V6.05078H87.7139V16.8912C88.6424 16.7617 89.4775 16.4818 90.214 16.0621C91.2825 15.4455 92.1694 14.6216 92.8645 13.5904C93.5543 12.5592 94.073 11.3881 94.405 10.0874C94.7369 8.78679 94.9081 7.43952 94.9081 6.05078H98.5493C98.5493 7.93697 98.2744 9.75062 97.7194 11.4865C97.1644 13.2225 96.3552 14.7718 95.2919 16.1346C95.0014 16.5077 94.6954 16.8601 94.3635 17.1814Z" fill="#F3F3F3"/>
<path d="M117.346 24.3012L115.904 24.1043L115.1 23.9903V17.8187C115.1 16.1035 114.644 14.7199 113.741 13.6732C113.539 13.4452 113.321 13.2327 113.077 13.0307C111.724 11.9373 109.664 11.3725 106.884 11.331L103.736 11.2896H103.528L103.414 12.5591L103.233 14.6267L107.19 14.7355C108.637 14.7769 109.727 15.0101 110.458 15.4454C111.184 15.8807 111.552 16.5595 111.552 17.4922V17.8187C111.298 17.7565 111.039 17.7099 110.774 17.6736C110.095 17.5751 109.306 17.5233 108.409 17.5233C106.137 17.5233 104.389 17.9897 103.15 18.9172C102.787 19.1919 102.475 19.4976 102.221 19.8396C101.625 20.6272 101.319 21.6014 101.293 22.7622C101.293 22.814 101.293 22.8606 101.293 22.9176C101.293 23.4151 101.345 23.8711 101.448 24.296C101.651 25.1458 102.06 25.8402 102.683 26.3894C102.709 26.4154 102.735 26.4361 102.766 26.4568C102.968 26.6278 103.191 26.7833 103.435 26.918C104.187 27.3377 105.121 27.5709 106.225 27.6124C106.345 27.6124 106.469 27.6175 106.589 27.6175C106.806 27.6175 107.019 27.6124 107.227 27.5968C107.968 27.545 108.627 27.3999 109.198 27.1615C109.265 27.1304 109.327 27.1045 109.389 27.0734C110.027 26.7729 110.531 26.3428 110.899 25.7832C111.231 25.2805 111.433 24.6743 111.506 23.9643H111.848L112.061 27.4673L113.762 27.4206L115.925 27.3584L117.367 27.317H117.517V24.3219L117.367 24.3012H117.346ZM111.547 21.1765C111.547 21.7258 111.392 22.2543 111.08 22.7725C110.769 23.2855 110.308 23.7104 109.685 24.0473C109.504 24.1457 109.306 24.2286 109.099 24.296C108.601 24.467 108.031 24.5499 107.382 24.5499C106.812 24.5499 106.34 24.467 105.966 24.296C105.821 24.2338 105.691 24.1613 105.577 24.068C105.162 23.7467 104.955 23.2855 104.955 22.6741C104.955 21.2905 106.132 20.591 108.492 20.591C109.099 20.591 109.685 20.6013 110.245 20.6272C110.655 20.6428 111.091 20.6946 111.552 20.7827V21.1765H111.547Z" fill="#F3F3F3"/>
<path d="M111.77 37.8721C112.688 38.8878 113.15 40.3283 113.15 42.1834V52.516H109.446V42.6343C109.446 41.6963 109.228 40.9761 108.787 40.4682C108.347 39.9656 107.729 39.7117 106.925 39.7117C104.705 39.7117 103.595 41.1574 103.595 44.0385V52.516H99.892V30.0527H103.595V39.52H103.953C104.078 38.4525 104.446 37.6545 105.069 37.1311C105.691 36.6078 106.625 36.3435 107.864 36.3435C109.545 36.3435 110.841 36.8565 111.76 37.8721H111.77Z" fill="#F3F3F3"/>
<path d="M128.803 41.4632C128.508 40.318 128.031 39.349 127.362 38.5613C127.346 38.5354 127.325 38.5095 127.304 38.4888C126.718 37.81 126.018 37.2918 125.199 36.9394C124.296 36.5404 123.243 36.3435 122.055 36.3435C120.494 36.3435 119.177 36.6907 118.098 37.3799C117.626 37.6856 117.2 38.0535 116.817 38.494C116.656 38.6753 116.505 38.8722 116.365 39.0743C115.888 39.7739 115.53 40.5926 115.292 41.5357C115.064 42.4374 114.949 43.4582 114.949 44.5826C114.949 45.7071 115.069 46.7642 115.307 47.6814C115.603 48.8214 116.08 49.7904 116.749 50.5832C116.77 50.6143 116.791 50.635 116.817 50.6609C117.403 51.3398 118.103 51.8579 118.912 52.2103C119.815 52.6145 120.862 52.8166 122.05 52.8166C123.238 52.8166 124.286 52.6197 125.193 52.2155C126.013 51.8579 126.713 51.3398 127.299 50.6609C127.32 50.6402 127.341 50.6143 127.356 50.5884C128.025 49.7956 128.503 48.8266 128.798 47.6814C129.042 46.759 129.156 45.7278 129.156 44.5775C129.156 43.4271 129.037 42.3907 128.798 41.4632H128.803ZM125.199 46.3393C125.059 47.044 124.825 47.6399 124.498 48.1167C123.928 48.9458 123.114 49.3655 122.055 49.3655C120.997 49.3655 120.193 48.9458 119.618 48.1167C119.291 47.6399 119.057 47.044 118.917 46.3393C118.814 45.8159 118.757 45.2252 118.757 44.5775C118.757 43.9297 118.808 43.3286 118.917 42.8001C119.057 42.0902 119.291 41.4994 119.618 41.0227C120.193 40.1936 121.002 39.7791 122.055 39.7791C123.108 39.7791 123.917 40.1936 124.493 41.0227C124.825 41.4994 125.059 42.0902 125.199 42.8001C125.297 43.3234 125.354 43.9194 125.354 44.5775C125.354 45.2355 125.302 45.8159 125.199 46.3393Z" fill="#F3F3F3"/>
<path d="M130.78 27.3117V16.0101C130.78 14.9115 130.422 14.3623 129.712 14.3623C128.866 14.3623 128.441 15.0048 128.441 16.2899V27.3117H125.547V15.7095C125.547 14.8079 125.189 14.3623 124.468 14.3623C123.607 14.3623 123.176 15.0048 123.176 16.2899V27.3117H119.504V11.4397H122.819L123.031 13.4192H123.342C123.524 11.9009 124.364 11.1392 125.874 11.1392C126.672 11.1392 127.295 11.4242 127.756 11.9942C128.042 12.3517 128.239 12.8284 128.343 13.4192H128.659C128.732 12.7507 128.991 12.2014 129.447 11.7765C129.904 11.3516 130.526 11.1392 131.33 11.1392C132.409 11.1392 133.192 11.4345 133.69 12.0253C134.183 12.6108 134.432 13.5643 134.432 14.8856V27.3117H130.775H130.78Z" fill="#F3F3F3"/>
<path d="M145.116 42.1576C144.95 41.1523 144.686 40.2766 144.307 39.5149C144.125 39.1418 143.913 38.7998 143.674 38.4837C143.405 38.1313 143.109 37.8204 142.782 37.5561C141.791 36.7477 140.531 36.3384 139.006 36.3384C137.787 36.3384 136.838 36.6078 136.158 37.1467C135.479 37.6857 135.054 38.4733 134.882 39.5097H134.628L134.374 36.6337H130.972V59.3976H134.675V49.635H134.986C135.126 50.6714 135.546 51.459 136.247 51.9979C136.947 52.5368 137.87 52.8063 139.016 52.8063C140.593 52.8063 141.885 52.3814 142.891 51.5264C143.176 51.288 143.436 51.0134 143.674 50.7076C143.939 50.3656 144.172 49.9874 144.369 49.5728C144.727 48.8214 144.986 47.9509 145.137 46.9612C145.246 46.2461 145.298 45.4792 145.298 44.6449C145.298 43.7381 145.235 42.909 145.116 42.1472V42.1576ZM141.413 46.329C141.268 47.1063 141.019 47.7384 140.661 48.2359C140.069 49.0443 139.203 49.4484 138.052 49.4484C136.9 49.4484 136.003 49.065 135.463 48.3084C135.168 47.8887 134.95 47.3343 134.82 46.6606C134.717 46.1217 134.659 45.4999 134.659 44.8003V44.3702C134.659 43.6811 134.711 43.0696 134.82 42.5359C134.96 41.8467 135.194 41.287 135.51 40.8569C136.081 40.0952 136.921 39.7118 138.041 39.7118C139.162 39.7118 140.033 40.1367 140.635 40.9865C140.993 41.4891 141.242 42.1265 141.387 42.8934C141.485 43.4168 141.532 44.0075 141.532 44.6552C141.532 45.303 141.491 45.8315 141.397 46.329H141.413Z" fill="#F3F3F3"/>
<path d="M151.911 18.8498C151.911 17.43 151.714 16.2019 151.325 15.1603C151.024 14.3675 150.614 13.6835 150.09 13.1135C149.577 12.559 148.98 12.1238 148.291 11.8025C147.819 11.5797 147.305 11.4139 146.75 11.305C146.19 11.191 145.588 11.134 144.94 11.134C144.821 11.134 144.707 11.134 144.592 11.1392C142.72 11.2014 141.205 11.761 140.054 12.8233C139.893 12.9684 139.743 13.1239 139.597 13.2897C138.866 14.124 138.347 15.15 138.041 16.3729C137.813 17.259 137.704 18.2487 137.704 19.3421C137.704 20.3784 137.818 21.3215 138.041 22.1662C138.394 23.5031 139.027 24.6016 139.935 25.4722C140.023 25.5551 140.111 25.6328 140.199 25.7157C141.667 26.9749 143.69 27.6071 146.257 27.6071C146.89 27.6071 147.611 27.5812 148.426 27.5294C149.012 27.4931 149.644 27.4257 150.319 27.3221C150.583 27.2807 150.853 27.234 151.128 27.1874L150.739 23.7725C150.282 23.8606 149.826 23.9332 149.38 23.9902C149.146 24.0265 148.913 24.0576 148.68 24.0783C148.005 24.156 147.316 24.1923 146.62 24.1923C144.914 24.1923 143.591 23.7674 142.663 22.9124C142.092 22.389 141.693 21.7154 141.475 20.8966H151.823C151.885 20.2593 151.911 19.5753 151.911 18.8446V18.8498ZM141.32 18.2383C141.434 17.1812 141.74 16.3418 142.248 15.7096C142.896 14.8909 143.804 14.4815 144.976 14.4815C146.045 14.4815 146.88 14.808 147.476 15.4557C148.078 16.1034 148.379 17.031 148.379 18.2435H141.325L141.32 18.2383Z" fill="#F3F3F3"/>
<path d="M161.211 42.4736C161.087 41.3958 160.812 40.4527 160.402 39.6495C160.148 39.1521 159.842 38.7116 159.484 38.323C159.287 38.1053 159.074 37.9084 158.846 37.7271C157.694 36.8047 156.19 36.3435 154.333 36.3435C152.476 36.3435 150.988 36.8047 149.815 37.7219C149.52 37.9499 149.245 38.209 148.996 38.4992C148.695 38.8412 148.436 39.2142 148.208 39.6184C147.787 40.3646 147.487 41.2144 147.305 42.1783C147.17 42.9037 147.098 43.6965 147.098 44.5515C147.098 45.4066 147.175 46.1838 147.326 46.9093C147.523 47.8368 147.839 48.6608 148.291 49.381C148.581 49.8578 148.929 50.293 149.333 50.6817C149.53 50.8682 149.733 51.0392 149.95 51.1999C151.387 52.2777 153.285 52.8166 155.661 52.8166C156.294 52.8166 157.015 52.7907 157.829 52.7389C158.384 52.7026 158.981 52.6404 159.619 52.542C159.914 52.5005 160.22 52.4487 160.532 52.3917L160.143 48.9768C159.463 49.1012 158.794 49.1997 158.14 49.2774C158.125 49.2774 158.099 49.2774 158.083 49.2826C157.409 49.3603 156.719 49.3966 156.024 49.3966C154.318 49.3966 152.995 48.9717 152.067 48.1167C151.584 47.6762 151.226 47.1321 150.998 46.4844C150.957 46.36 150.915 46.2305 150.879 46.1009H161.227C161.284 45.4636 161.315 44.7795 161.315 44.0489C161.315 43.4945 161.284 42.9659 161.221 42.4684L161.211 42.4736ZM150.708 43.4426C150.749 43.0229 150.827 42.6394 150.936 42.2871C151.097 41.7482 151.33 41.2922 151.636 40.9139C152.284 40.0952 153.192 39.6858 154.364 39.6858C155.433 39.6858 156.268 40.0123 156.864 40.66C157.228 41.0538 157.482 41.5461 157.622 42.142C157.72 42.5358 157.767 42.9711 157.767 43.4478H150.713L150.708 43.4426Z" fill="#F3F3F3"/>
<path d="M165.288 26.9852C164.458 27.2029 163.654 27.3635 162.882 27.462C162.109 27.5604 161.284 27.6122 160.402 27.6122C158.462 27.6122 157.067 27.0837 156.211 26.0266C155.355 24.9695 154.93 23.275 154.93 20.9484V8.20622H150.355V4.84839H158.613V20.7981C158.613 21.5287 158.691 22.1247 158.836 22.5858C158.986 23.0522 159.277 23.3942 159.697 23.6118C160.122 23.8295 160.755 23.9435 161.595 23.9435C162.436 23.9435 163.54 23.7518 164.858 23.3735L165.278 26.9852H165.288Z" fill="#F3F3F3"/>
<path d="M172.711 8.46067C172.254 7.99948 172.021 7.41912 172.021 6.7092C172.021 5.99929 172.249 5.41892 172.711 4.95774C173.172 4.50174 173.753 4.26855 174.464 4.26855C175.174 4.26855 175.755 4.49656 176.217 4.95774C176.673 5.41892 176.907 5.99929 176.907 6.7092C176.907 7.41912 176.679 7.99948 176.217 8.46067C175.755 8.91667 175.174 9.14985 174.464 9.14985C173.753 9.14985 173.172 8.92185 172.711 8.46067Z" fill="#F3F3F3"/>
<path d="M176.456 23.9595H181.238V27.3122H166.819V23.9595H172.773V14.7928H167.716V11.4402H176.456V23.9595Z" fill="#F3F3F3"/>
<path d="M177.451 44.0541C177.451 41.5461 176.844 39.634 175.625 38.3178C174.412 37.0016 172.695 36.3435 170.475 36.3435C168.602 36.3435 167.072 36.8202 165.89 37.7789C165.62 37.9965 165.371 38.2349 165.138 38.5043C164.816 38.8671 164.536 39.2712 164.297 39.7117C163.862 40.5149 163.561 41.4476 163.395 42.4995C163.296 43.1421 163.244 43.8261 163.244 44.5567C163.244 45.1889 163.286 45.7848 163.369 46.3445C163.55 47.5777 163.934 48.6452 164.526 49.5468C164.795 49.9666 165.112 50.3448 165.475 50.6869C165.796 50.9926 166.144 51.2672 166.517 51.5056C167.892 52.3865 169.655 52.8218 171.803 52.8218C172.43 52.8218 173.151 52.7959 173.971 52.744C174.78 52.6922 175.688 52.5782 176.673 52.3969L176.284 48.982C175.584 49.1116 174.899 49.21 174.225 49.2878C173.551 49.3655 172.861 49.4018 172.166 49.4018C170.459 49.4018 169.137 48.9768 168.208 48.1218C167.638 47.5985 167.238 46.9248 167.02 46.1061H177.368C177.425 45.4687 177.456 44.7847 177.456 44.0541H177.451ZM166.855 43.4426C166.886 43.1265 166.943 42.826 167.015 42.5514C167.176 41.8984 167.43 41.3543 167.783 40.9139C168.431 40.0952 169.339 39.6858 170.511 39.6858C171.58 39.6858 172.415 40.0123 173.011 40.66C173.613 41.3077 173.914 42.2353 173.914 43.4478H166.86L166.855 43.4426Z" fill="#F3F3F3"/>
<path d="M196.44 23.9902V17.8186C196.44 15.7252 195.766 14.1291 194.417 13.0358C193.069 11.9424 191.01 11.3776 188.23 11.3361L184.868 11.2947L184.568 14.6318L188.525 14.7406C189.972 14.7821 191.062 15.0152 191.793 15.4505C192.519 15.8858 192.887 16.5646 192.887 17.4973V17.8238C192.633 17.7616 192.374 17.7202 192.109 17.6787C191.43 17.5803 190.641 17.5284 189.744 17.5284C188.157 17.5284 186.824 17.7564 185.745 18.2073C185.278 18.4042 184.858 18.6373 184.485 18.9224C183.945 19.3317 183.52 19.8136 183.214 20.3681C182.98 20.8034 182.814 21.2801 182.721 21.8086C182.654 22.1558 182.623 22.5289 182.623 22.9227C182.623 24.042 182.882 24.9747 183.406 25.7157C183.577 25.9645 183.779 26.1873 184.013 26.3946C184.262 26.6174 184.542 26.8091 184.848 26.9646C185.455 27.291 186.176 27.4983 187.011 27.5812C187.301 27.6123 187.602 27.6227 187.913 27.6227C188.925 27.6227 189.796 27.4672 190.522 27.1667C191.248 26.8609 191.819 26.4049 192.223 25.7883C192.555 25.2857 192.758 24.6794 192.83 23.9695H193.173L193.385 27.4724L198.842 27.3221V24.3322L196.446 24.0006L196.44 23.9902ZM192.887 21.1765C192.887 21.7257 192.732 22.2543 192.421 22.7725C192.109 23.2906 191.648 23.7104 191.025 24.0472C190.403 24.3788 189.64 24.5498 188.717 24.5498C187.981 24.5498 187.41 24.4151 187 24.1301C186.969 24.1146 186.938 24.0886 186.912 24.0679C186.497 23.7466 186.29 23.2855 186.29 22.674C186.29 22.0625 186.528 21.5703 187.005 21.2283C187.592 20.8085 188.53 20.5961 189.832 20.5961C190.439 20.5961 191.025 20.6065 191.585 20.6324C191.995 20.6479 192.431 20.6997 192.893 20.7878V21.1816L192.887 21.1765Z" fill="#F3F3F3"/>
</svg>
