<svg width="188" height="299" viewBox="0 0 188 299" fill="none" xmlns="http://www.w3.org/2000/svg">
<path d="M23.1902 298.5C20.5066 298.5 19.1648 298.5 17.9017 298.198C16.7819 297.929 15.711 297.487 14.7284 296.887C13.6201 296.209 12.6695 295.262 10.7684 293.368L5.17818 287.799C3.26728 285.895 2.31182 284.943 1.62848 283.831C1.02263 282.846 0.576108 281.77 0.305371 280.646C0 279.377 0 278.028 0 275.331V15.85V15.85C0 11.3341 0 9.07616 0.652976 7.2665C1.76383 4.1879 4.18788 1.76384 7.26649 0.652991C9.07614 1.45221e-05 11.3341 1.43389e-05 15.85 1.39723e-05L172.14 1.28726e-06C176.665 9.1997e-07 178.928 7.36325e-07 180.741 0.655648C183.814 1.76683 186.233 4.18646 187.344 7.2591C188 9.07209 188 11.3347 188 15.86V15.86L188 275.317C188 278.016 188 279.365 187.694 280.634C187.423 281.76 186.977 282.835 186.37 283.821C185.686 284.934 184.73 285.886 182.818 287.79L177.211 293.372C175.31 295.265 174.36 296.211 173.252 296.888C172.269 297.488 171.199 297.93 170.079 298.198C168.817 298.5 167.475 298.5 164.793 298.5H23.1902Z" fill="black"/>
</svg>
