<svg width="91" height="22" viewBox="0 0 91 22" fill="none" xmlns="http://www.w3.org/2000/svg">
<path d="M12.9367 7.57718L11.5928 3.94536C11.0838 2.56991 9.1384 2.56991 8.62943 3.94537L7.28554 7.57718C7.18953 7.83665 6.98496 8.04122 6.7255 8.13723L3.09368 9.48112C1.71822 9.99009 1.71823 11.9355 3.09368 12.4445L6.7255 13.7884C6.98496 13.8844 7.18953 14.0889 7.28554 14.3484L8.62944 17.9802C9.1384 19.3557 11.0838 19.3557 11.5928 17.9802L12.9367 14.3484C13.0327 14.0889 13.2373 13.8844 13.4967 13.7884L17.1285 12.4445C18.504 11.9355 18.504 9.99008 17.1285 9.48112L13.4967 8.13723C13.2373 8.04122 13.0327 7.83664 12.9367 7.57718Z" fill="#FBF102" stroke="#868222" stroke-width="0.631944"/>
<path d="M26.6201 4.05502C27.0273 2.95466 28.5836 2.95465 28.9908 4.05502L30.3347 7.68684C30.4627 8.03279 30.7355 8.30555 31.0814 8.43356L34.7132 9.77745C35.8136 10.1846 35.8136 11.741 34.7132 12.1481L31.0814 13.492C30.7355 13.62 30.4627 13.8928 30.3347 14.2388L28.9908 17.8706C28.5836 18.9709 27.0273 18.9709 26.6201 17.8706L25.2762 14.2388C25.1482 13.8928 24.8754 13.62 24.5295 13.492L20.8977 12.1481C19.7973 11.741 19.7973 10.1846 20.8977 9.77746L24.5295 8.43356C24.8754 8.30555 25.1482 8.03279 25.2762 7.68684L26.6201 4.05502Z" fill="#868222"/>
<path d="M44.3144 4.05502C44.7216 2.95466 46.278 2.95465 46.6851 4.05502L48.029 7.68684C48.157 8.03279 48.4298 8.30555 48.7757 8.43356L52.4076 9.77745C53.5079 10.1846 53.5079 11.741 52.4076 12.1481L48.7757 13.492C48.4298 13.62 48.157 13.8928 48.029 14.2388L46.6851 17.8706C46.278 18.9709 44.7216 18.9709 44.3144 17.8706L42.9705 14.2388C42.8425 13.8928 42.5698 13.62 42.2238 13.492L38.592 12.1481C37.4916 11.741 37.4916 10.1846 38.592 9.77746L42.2238 8.43356C42.5698 8.30555 42.8425 8.03279 42.9705 7.68684L44.3144 4.05502Z" fill="#868222"/>
<path d="M62.0093 4.05502C62.4164 2.95466 63.9728 2.95465 64.3799 4.05502L65.7238 7.68684C65.8519 8.03279 66.1246 8.30555 66.4706 8.43356L70.1024 9.77745C71.2027 10.1846 71.2027 11.741 70.1024 12.1481L66.4706 13.492C66.1246 13.62 65.8519 13.8928 65.7238 14.2388L64.3799 17.8706C63.9728 18.9709 62.4164 18.9709 62.0093 17.8706L60.6654 14.2388C60.5374 13.8928 60.2646 13.62 59.9186 13.492L56.2868 12.1481C55.1865 11.741 55.1865 10.1846 56.2868 9.77746L59.9186 8.43356C60.2646 8.30555 60.5374 8.03279 60.6654 7.68684L62.0093 4.05502Z" fill="#868222"/>
<path d="M79.7036 4.05502C80.1108 2.95466 81.6671 2.95465 82.0743 4.05502L83.4182 7.68684C83.5462 8.03279 83.819 8.30555 84.1649 8.43356L87.7967 9.77745C88.8971 10.1846 88.8971 11.741 87.7967 12.1481L84.1649 13.492C83.819 13.62 83.5462 13.8928 83.4182 14.2388L82.0743 17.8706C81.6671 18.9709 80.1108 18.9709 79.7036 17.8706L78.3597 14.2388C78.2317 13.8928 77.9589 13.62 77.613 13.492L73.9812 12.1481C72.8808 11.741 72.8808 10.1846 73.9812 9.77746L77.613 8.43356C77.9589 8.30555 78.2317 8.03279 78.3597 7.68684L79.7036 4.05502Z" fill="#868222"/>
</svg>
